<svg width="155" height="170" viewBox="0 0 155 170" fill="none" xmlns="http://www.w3.org/2000/svg">
<path d="M31.5854 85.5853C28.597 84.7731 26.0177 84.4941 23.8415 83.4153C6.30138 74.7351 -3.1972 54.4483 1.07468 35.1412C5.42716 15.4992 23.1719 0.792536 43.5765 0.45773C61.4638 0.166325 79.3573 0.389529 97.2509 0.383329C113.514 0.383329 129.783 0.377129 146.046 0.383329C152.006 0.383329 154.991 3.28292 154.999 9.08209C154.999 25.8906 154.999 42.6991 154.999 59.5076C154.999 64.9472 152.341 67.6628 147.025 67.6546C112.869 67.6484 78.7125 67.6422 44.5561 67.636C44.3763 67.636 44.1965 67.636 44.0167 67.636C31.9947 67.6794 27.8902 73.0611 31.5854 85.5791V85.5853Z" fill="white"/>
<path d="M123.403 84.6119C126.305 85.3745 128.437 85.5915 130.26 86.4595C148.228 95.0343 158.018 115.042 154.025 134.777C150.181 153.774 132.381 169.541 112.937 169.77C76.8029 170.198 40.6624 169.863 4.52195 170C0.144672 170.018 0.0702709 167.644 0.0826711 164.463C0.144672 145.85 0.281075 127.238 0.00206958 108.631C-0.0723318 103.628 1.8559 102.549 6.33859 102.567C38.5048 102.698 70.6648 102.648 102.831 102.654C105.54 102.654 108.25 102.654 110.959 102.654C123.081 102.636 127.042 97.4647 123.397 84.6119H123.403Z" fill="white"/>
</svg>
